<svg width="40" height="38" viewBox="0 0 40 38" fill="none" xmlns="http://www.w3.org/2000/svg">
<path d="M6.86499 1.46451V2.92904H4.98856H3.11213V4.66817V6.4073H1.55606H0V13.3181V20.2288H1.55606H3.11213V21.9679V23.7071H4.98856H6.86499V25.4462V27.1853H8.74142H10.6178V28.9245V30.6636H12.4943H14.3707V32.4027V34.1419H16.2471H18.1236V35.881V37.6201H20H21.8764V35.881V34.1419H23.7529H25.6293V32.4027V30.6636H27.5057H29.3822V28.9245V27.1853H31.2586H33.135V25.4462V23.7071H35.0114H36.8879V21.9679V20.2288H38.4439H40V13.3181V6.4073H38.4439H36.8879V4.66817V2.92904H35.0114H33.135V1.46451V-1.89561e-05H27.5057H21.8764V1.46451V2.92904H20H18.1236V1.46451V-1.89561e-05H12.4943H6.86499V1.46451ZM28.9245 7.87183V9.61096H30.8009H32.6773V11.4874V13.3638H30.8009H28.9245V11.6247V9.88556H27.0481H25.1716V8.00913V6.1327H27.0481H28.9245V7.87183Z" fill="#FFFF00"/>
</svg>
