<?xml version="1.0" standalone="no"?>
<!DOCTYPE svg PUBLIC "-//W3C//DTD SVG 20010904//EN"
 "http://www.w3.org/TR/2001/REC-SVG-20010904/DTD/svg10.dtd">
<svg version="1.0" xmlns="http://www.w3.org/2000/svg"
 width="151.000000pt" height="145.000000pt" viewBox="0 0 151.000000 145.000000"
 preserveAspectRatio="xMidYMid meet">
<metadata>
Created by potrace 1.15, written by Peter Selinger 2001-2017
</metadata>
<g transform="translate(0.000000,145.000000) scale(0.100000,-0.100000)"
fill="#000000" stroke="none">
<path d="M595 1342 c-80 -37 -128 -129 -141 -266 -4 -42 -8 -76 -11 -76 -2 0
-22 12 -45 27 -32 21 -56 28 -108 31 -64 4 -69 3 -105 -29 -92 -81 -84 -199
22 -319 68 -77 77 -113 47 -186 -20 -47 -14 -125 12 -175 27 -54 143 -163 205
-192 66 -33 139 -43 196 -28 63 17 158 86 258 187 l90 91 80 6 c146 10 267 64
299 132 9 18 16 56 16 85 0 46 -4 56 -34 86 -19 19 -48 37 -65 40 l-31 7 41
44 c50 55 69 98 69 160 0 94 -57 148 -155 148 l-60 0 3 36 c7 73 -41 138 -120
165 -68 22 -153 -1 -202 -55 -26 -28 -34 -27 -52 12 -34 71 -134 104 -209 69z
m103 -101 c30 -19 34 -163 6 -234 -6 -17 13 -28 71 -43 20 -5 27 -1 35 20 50
131 132 236 186 236 65 0 91 -50 62 -117 -16 -37 -79 -129 -117 -172 -17 -18
-31 -37 -31 -41 0 -10 58 -60 69 -60 5 0 41 31 81 70 85 82 167 128 199 110
28 -15 36 -52 18 -87 -20 -38 -102 -113 -172 -158 -31 -20 -55 -39 -53 -43 2
-4 10 -24 18 -45 14 -37 16 -39 50 -33 137 25 190 20 190 -19 0 -59 -102 -104
-256 -112 l-101 -6 -71 -82 c-78 -91 -185 -177 -241 -194 -65 -19 -149 18
-226 100 -69 74 -83 109 -61 156 43 90 26 188 -48 270 -74 83 -95 146 -59 185
44 49 133 -10 286 -192 l38 -45 -8 90 c-11 128 -9 281 6 343 22 89 79 135 129
103z"/>
</g>
</svg>
