<?xml version="1.0" standalone="no"?>
<!DOCTYPE svg PUBLIC "-//W3C//DTD SVG 20010904//EN"
 "http://www.w3.org/TR/2001/REC-SVG-20010904/DTD/svg10.dtd">
<svg version="1.0" xmlns="http://www.w3.org/2000/svg"
 width="154.000000pt" height="134.000000pt" viewBox="0 0 154.000000 134.000000"
 preserveAspectRatio="xMidYMid meet">
<metadata>
Created by potrace 1.15, written by Peter Selinger 2001-2017
</metadata>
<g transform="translate(0.000000,134.000000) scale(0.100000,-0.100000)"
fill="#000000" stroke="none">
<path d="M494 1251 c-113 -28 -197 -153 -173 -258 12 -57 22 -75 66 -124 l35
-39 -65 0 c-113 0 -202 -41 -236 -109 -47 -91 -35 -186 33 -256 60 -63 123
-79 299 -80 l138 0 16 -33 c9 -18 24 -37 34 -43 14 -7 19 -21 19 -55 0 -67 32
-118 94 -149 83 -42 234 -32 446 29 127 37 191 126 212 293 23 180 -14 327
-106 430 -79 87 -220 153 -326 153 -26 0 -46 12 -100 64 -147 139 -284 201
-386 177z m116 -116 c58 -20 153 -90 223 -164 32 -33 67 -61 78 -61 24 0 24
-2 -7 -91 -14 -41 -31 -103 -38 -138 l-12 -64 -61 -17 c-33 -9 -82 -33 -109
-52 -58 -43 -126 -58 -258 -58 -110 0 -160 13 -198 50 -35 36 -39 103 -8 143
44 56 199 60 386 11 54 -14 108 -28 120 -31 18 -4 23 2 34 43 12 41 12 48 -1
52 -67 23 -220 114 -270 161 -83 80 -90 132 -24 198 38 38 75 43 145 18z m471
-250 c75 -27 119 -61 119 -94 0 -93 -80 -240 -153 -281 -35 -20 -40 -21 -62
-6 -32 21 -49 77 -40 134 12 79 74 262 89 262 2 0 23 -7 47 -15z m220 -237
c16 -65 16 -207 0 -268 -15 -53 -58 -123 -71 -115 -5 3 -7 12 -4 20 3 7 -3 33
-14 58 -15 35 -29 49 -67 67 l-47 23 35 31 c49 42 103 125 123 191 10 30 21
52 25 50 4 -3 13 -29 20 -57z m-413 -168 c21 -34 28 -52 19 -54 -6 -2 -48 -13
-92 -25 -82 -23 -109 -21 -119 6 -7 17 17 59 43 80 13 11 91 40 112 42 3 1 20
-22 37 -49z m231 -154 c27 -25 27 -58 -2 -91 -19 -22 -37 -29 -117 -41 -138
-21 -222 -6 -235 43 -10 43 2 60 58 76 109 34 124 36 198 34 60 -2 82 -6 98
-21z"/>
</g>
</svg>
