<?xml version="1.0" standalone="no"?>
<!DOCTYPE svg PUBLIC "-//W3C//DTD SVG 20010904//EN"
 "http://www.w3.org/TR/2001/REC-SVG-20010904/DTD/svg10.dtd">
<svg version="1.0" xmlns="http://www.w3.org/2000/svg"
 width="149.000000pt" height="136.000000pt" viewBox="0 0 149.000000 136.000000"
 preserveAspectRatio="xMidYMid meet">
<metadata>
Created by potrace 1.15, written by Peter Selinger 2001-2017
</metadata>
<g transform="translate(0.000000,136.000000) scale(0.100000,-0.100000)"
fill="#000000" stroke="none">
<path d="M741 1255 c-49 -23 -60 -25 -105 -15 -96 19 -180 -21 -219 -102 -20
-43 -25 -47 -57 -48 -96 -2 -168 -74 -177 -179 -5 -48 -10 -62 -25 -67 -33
-10 -75 -62 -88 -109 -22 -78 16 -201 90 -296 37 -46 121 -102 178 -120 34
-10 48 -22 68 -55 62 -106 190 -187 298 -188 54 -1 69 4 126 38 36 21 142 80
237 130 200 108 235 133 274 194 56 89 83 253 68 409 -11 105 -23 145 -60 199
-54 79 -138 124 -231 124 -45 0 -55 4 -99 44 -78 70 -182 85 -278 41z m194
-107 l27 -21 -48 -25 c-104 -52 -132 -101 -125 -218 0 -12 12 -38 26 -59 15
-20 24 -40 21 -42 -9 -10 -86 120 -101 171 -27 89 -13 165 36 200 36 25 129
22 164 -6z m-293 -90 c-4 -94 13 -158 68 -252 22 -37 40 -69 40 -70 0 -1 -16
-10 -35 -21 l-36 -19 -62 62 c-35 35 -78 88 -97 118 -29 48 -33 64 -32 115 2
60 22 114 51 136 9 7 36 12 61 10 l45 -2 -3 -77z m543 -7 c50 -22 91 -69 105
-119 32 -119 19 -322 -29 -415 -31 -62 -79 -97 -266 -193 -71 -37 -160 -84
-197 -105 -78 -46 -110 -48 -177 -14 -53 26 -128 104 -138 143 -26 103 207
285 522 408 66 25 122 48 123 49 6 6 -19 75 -26 75 -4 0 -35 -10 -69 -22 -110
-38 -179 1 -158 88 12 46 52 76 139 104 77 24 120 24 171 1z m-783 -109 c11
-64 55 -138 131 -218 37 -39 67 -73 67 -76 0 -2 -20 -21 -45 -42 l-46 -38 -37
28 c-70 53 -144 129 -164 169 -24 46 -29 147 -9 183 14 26 46 42 76 39 15 -1
21 -12 27 -45z m-164 -230 c22 -39 137 -156 184 -186 l26 -17 -25 -50 c-22
-41 -30 -48 -47 -43 -103 31 -206 162 -206 263 0 36 19 71 39 71 4 0 17 -17
29 -38z"/>
</g>
</svg>
